<svg xmlns="http://www.w3.org/2000/svg"
    xmlns:xlink="http://www.w3.org/1999/xlink" width="16" height="16" viewBox="0 0 16 16">
    <defs>
        <path id="92vpa" d="M915.5 3500H910v-5.5a.5.5 0 0 0-.5-.5h-3a.5.5 0 0 0-.5.5v5.5h-5.5a.5.5 0 0 0-.5.5v3c0 .27.22.5.5.5h5.5v5.5c0 .27.22.5.5.5h3a.5.5 0 0 0 .5-.5v-5.5h5.5a.5.5 0 0 0 .5-.5v-3a.5.5 0 0 0-.5-.5z"/>
    </defs>
    <g>
        <g transform="translate(-900 -3494)">
            <use fill="#fff" xlink:href="#92vpa"/>
        </g>
    </g>
</svg>