<svg xmlns="http://www.w3.org/2000/svg"
    xmlns:xlink="http://www.w3.org/1999/xlink" width="58" height="97" viewBox="0 0 58 97">
    <defs>
        <path id="lo22a" d="M227.42 1196.87h35.96v4.96c0 1.19-.96 2.17-2.14 2.17h-31.68a2.16 2.16 0 0 1-2.14-2.17zm-11.74-71.67a18.1 18.1 0 0 1 18-18.2c9.95 0 18.01 8.14 18.01 18.2 0 6.7-3.59 12.54-8.91 15.7-.77-7.4-1.61-15.66-1.61-15.7a6.6 6.6 0 0 0-2.6-4.68 7.47 7.47 0 0 0-4.43-1.42c-2.1 0-4.1.8-5.49 2.2a6.83 6.83 0 0 0-1.94 4.83l-.01 15.85a18.2 18.2 0 0 1-11.02-16.78zm53.3 54.73c0 2.56-.69 5.08-1.98 7.27l-3.64 6.21H227.4c-10.01-10.25-15.1-21.18-15.86-25.87-.54-3.22 1.68-5.37 4.14-5.37 1.4 0 2.9.7 4.01 2.3l1.17 1.7c3.2 4.7 6.5 4.74 7.95 4.79h.03c.05 0 .1 0 .14-.02h.02c.52-.07.9-.5.9-1.03l.02-43.8c-.02-2.45 2.13-3.77 4.2-3.77 1.84 0 3.62 1.02 3.84 3.2l2.78 27.15v.01h.01a5.27 5.27 0 0 1 3.47-1.08 9 9 0 0 1 1.66.16c1.84.37 13.84 4.28 19.79 6.24 1.99.65 3.33 2.52 3.33 4.64z"/>
    </defs>
    <g>
        <g transform="translate(-211 -1107)">
            <use fill="#18cfab" xlink:href="#lo22a"/>
        </g>
    </g>
</svg>