<svg xmlns="http://www.w3.org/2000/svg"
    xmlns:xlink="http://www.w3.org/1999/xlink" width="44" height="30" viewBox="0 0 44 30">
    <defs>
        <path id="iyzja" d="M947.66 4839.9a9.58 9.58 0 0 1 9.61 9.55c0 5.27-4.3 9.54-9.61 9.54a9.58 9.58 0 0 1-9.62-9.54l-.04-1.37a19.16 19.16 0 0 1 19.23-19.09v5.46a13.7 13.7 0 0 0-11.08 5.57c.5-.07 1-.12 1.5-.12zm24.72 0a9.58 9.58 0 0 1 9.62 9.55c0 5.27-4.3 9.54-9.62 9.54a9.58 9.58 0 0 1-9.61-9.54l-.04-1.37a19.16 19.16 0 0 1 19.23-19.09v5.46a13.7 13.7 0 0 0-11.08 5.57c.49-.07 1-.12 1.5-.12z"/>
    </defs>
    <g>
        <g transform="translate(-938 -4829)">
            <use fill="#18cfab" xlink:href="#iyzja"/>
        </g>
    </g>
</svg>